{
  "accessors": [
    {
      "bufferView": 2,
      "componentType": 5126,
      "count": 2301,
      "max": [
        0.5688599944114685,
        1.0,
        0.5641300082206726
      ],
      "min": [
        -0.5688599944114685,
        -1.0,
        -0.5641289949417114
      ],
      "type": "VEC3"
    },
    {
      "bufferView": 2,
      "byteOffset": 27612,
      "componentType": 5126,
      "count": 2301,
      "max": [
        1.0,
        1.0,
        0.9999930262565613
      ],
      "min": [
        -1.0,
        -1.0,
        -1.0
      ],
      "type": "VEC3"
    },
    {
      "bufferView": 3,
      "componentType": 5126,
      "count": 2301,
      "max": [
        0.9999999403953552,
        0.9998127818107605,
        0.9999920129776001,
        1.0
      ],
      "min": [
        -1.0,
        -1.0,
        -0.997683584690094,
        -1.0
      ],
      "type": "VEC4"
    },
    {
      "bufferView": 1,
      "componentType": 5126,
      "count": 2301,
      "max": [
        0.9974830150604248,
        0.9954800009727478
      ],
      "min": [
        0.005522139836102724,
        0.010111800394952297
      ],
      "type": "VEC2"
    },
    {
      "bufferView": 0,
      "componentType": 5125,
      "count": 8346,
      "type": "SCALAR"
    }
  ],
  "asset": {
    "extras": {
      "author": "Tyler P Halterman (https://sketchfab.com/tylerhalterman)",
      "license": "CC-BY-4.0 (http://creativecommons.org/licenses/by/4.0/)",
      "source": "https://sketchfab.com/3d-models/office-chair-87a8de3461bf44848f3629fa8a8dcd68",
      "title": "Office Chair"
    },
    "generator": "Sketchfab-12.66.0",
    "version": "2.0"
  },
  "bufferViews": [
    {
      "buffer": 0,
      "byteLength": 33384,
      "name": "floatBufferViews",
      "target": 34963
    },
    {
      "buffer": 0,
      "byteLength": 18408,
      "byteOffset": 33384,
      "byteStride": 8,
      "name": "floatBufferViews",
      "target": 34962
    },
    {
      "buffer": 0,
      "byteLength": 55224,
      "byteOffset": 51792,
      "byteStride": 12,
      "name": "floatBufferViews",
      "target": 34962
    },
    {
      "buffer": 0,
      "byteLength": 36816,
      "byteOffset": 107016,
      "byteStride": 16,
      "name": "floatBufferViews",
      "target": 34962
    }
  ],
  "buffers": [
    {
      "byteLength": 143832,
      "uri": "scene.bin"
    }
  ],
  "images": [
    {
      "uri": "textures/01___Default_baseColor.jpeg"
    },
    {
      "uri": "textures/01___Default_metallicRoughness.png"
    },
    {
      "uri": "textures/01___Default_normal.png"
    }
  ],
  "materials": [
    {
      "doubleSided": true,
      "name": "01___Default",
      "normalTexture": {
        "index": 2
      },
      "pbrMetallicRoughness": {
        "baseColorFactor": [
          0.4830625057220459,
          0.4830625057220459,
          0.4830625057220459,
          1.0
        ],
        "baseColorTexture": {
          "index": 0
        },
        "metallicRoughnessTexture": {
          "index": 1
        }
      }
    }
  ],
  "meshes": [
    {
      "name": "defaultMaterial",
      "primitives": [
        {
          "attributes": {
            "NORMAL": 1,
            "POSITION": 0,
            "TANGENT": 2,
            "TEXCOORD_0": 3
          },
          "indices": 4,
          "material": 0,
          "mode": 4
        }
      ]
    }
  ],
  "nodes": [
    {
      "children": [
        1
      ],
      "matrix": [
        0.6436609029769897,
        0.0,
        0.0,
        0.0,
        0.0,
        1.429214309072146e-16,
        -0.6436609029769897,
        0.0,
        0.0,
        0.6436609029769897,
        1.429214309072146e-16,
        0.0,
        0.0,
        0.0,
        0.0,
        1.0
      ],
      "name": "Sketchfab_model"
    },
    {
      "children": [
        2
      ],
      "matrix": [
        1.0,
        0.0,
        0.0,
        0.0,
        0.0,
        -4.371139006309477e-08,
        0.999999999999999,
        0.0,
        0.0,
        -0.999999999999999,
        -4.371139006309477e-08,
        0.0,
        0.0,
        0.0,
        0.0,
        1.0
      ],
      "name": "Collada visual scene group"
    },
    {
      "children": [
        3
      ],
      "name": "Chair"
    },
    {
      "mesh": 0,
      "name": "defaultMaterial"
    }
  ],
  "samplers": [
    {
      "magFilter": 9729,
      "minFilter": 9987,
      "wrapS": 10497,
      "wrapT": 10497
    }
  ],
  "scene": 0,
  "scenes": [
    {
      "name": "Sketchfab_Scene",
      "nodes": [
        0
      ]
    }
  ],
  "textures": [
    {
      "sampler": 0,
      "source": 0
    },
    {
      "sampler": 0,
      "source": 1
    },
    {
      "sampler": 0,
      "source": 2
    }
  ]
}
